inDegrees=no
num_controls=7
num_derivatives=13
num_iterations=103
num_multipliers=7
num_parameters=0
num_slacks=7
num_states=26
objective=0.478353
objective_accelerations=0.042876
objective_balance=0.003569
objective_effort=0.039452
objective_height=0.386763
objective_ligament=0.005694
solver_duration=1420.172830
status=Solve_Succeeded
success=true
DataType=double
version=3
OpenSimVersion=4.5
endheader
time	/jointset/ground_pelvis/pelvis_tilt/value	/jointset/ground_pelvis/pelvis_tx/value	/jointset/ground_pelvis/pelvis_ty/value	/jointset/hip_l/hip_flexion_l/value	/jointset/hip_l/hip_adduction_l/value	/jointset/hip_l/hip_rotation_l/value	/jointset/back/lumbar_extension/value	/jointset/patellofemoral_l/patellar_flexion_l/value	/jointset/knee_l/knee_flexion_l/value	/jointset/knee_l/knee_adduction_l/value	/jointset/knee_l/knee_rotation_l/value	/jointset/ankle_l/ankle_angle_l/value	/jointset/subtalar_l/subtalar_angle_l/value	/jointset/ground_pelvis/pelvis_tilt/speed	/jointset/ground_pelvis/pelvis_tx/speed	/jointset/ground_pelvis/pelvis_ty/speed	/jointset/hip_l/hip_flexion_l/speed	/jointset/hip_l/hip_adduction_l/speed	/jointset/hip_l/hip_rotation_l/speed	/jointset/back/lumbar_extension/speed	/jointset/patellofemoral_l/patellar_flexion_l/speed	/jointset/knee_l/knee_flexion_l/speed	/jointset/knee_l/knee_adduction_l/speed	/jointset/knee_l/knee_rotation_l/speed	/jointset/ankle_l/ankle_angle_l/speed	/jointset/subtalar_l/subtalar_angle_l/speed	/forceset/tau_hip_flexion_l	/forceset/tau_hip_adduction_l	/forceset/tau_hip_rotation_l	/forceset/tau_knee_flexion_l	/forceset/tau_ankle_angle_l	/forceset/tau_subtalar_angle_l	/forceset/tau_lumbar_extension	lambda_cid13_p0	lambda_cid13_p1	lambda_cid13_p2	lambda_cid13_p3	lambda_cid13_p4	lambda_cid13_p5	lambda_cid14_p0	/jointset/ground_pelvis/pelvis_tilt/accel	/jointset/ground_pelvis/pelvis_tx/accel	/jointset/ground_pelvis/pelvis_ty/accel	/jointset/hip_l/hip_flexion_l/accel	/jointset/hip_l/hip_adduction_l/accel	/jointset/hip_l/hip_rotation_l/accel	/jointset/back/lumbar_extension/accel	/jointset/patellofemoral_l/patellar_flexion_l/accel	/jointset/knee_l/knee_flexion_l/accel	/jointset/knee_l/knee_adduction_l/accel	/jointset/knee_l/knee_rotation_l/accel	/jointset/ankle_l/ankle_angle_l/accel	/jointset/subtalar_l/subtalar_angle_l/accel	gamma_cid13_p0	gamma_cid13_p1	gamma_cid13_p2	gamma_cid13_p3	gamma_cid13_p4	gamma_cid13_p5	gamma_cid14_p0
1	-0.1031719173728311	-0.05604416455003897	0.6943255989671302	1.286030835445192	-0.3299721706556377	0.06464308467896172	-0.9599249248034406	1.362640929727276	1.362640929727109	-0.0737024831105733	-0.1745134095444426	0.2748117554174979	0.06055916967937017	0.1021584629494836	0.02584674087699845	0.06875805572196966	-0.295372048482789	-0.006213421445323093	-0.06663230571245153	-0.00123583170607274	-0.1625077502691328	-0.1625077502692241	-0.0005326576665871786	-4.373657952000282e-05	0.02172797568969305	0.002376698424065156	-0.3685478273054305	0.03441431797916605	1.150805461925804e-06	-0.3651265931595014	0.03804099692155902	0.01721862067480993	0.4233313271081241	-39.16798110567904	1.103145234904255	-2.598444914702211	13.40903131590036	-796.6795638872668	-57.00110088634946	-0.04200855019744638	0.8177474419178801	0.008151951067999335	1.473965433850347	-4.808848587292069	-0.1068832371652685	-1.644486972523615	0.1184125114133687	-4.863515469320735	-4.863515469322305	-0.3056152833546256	-0.01466214825041949	-1.217042340248379	-0.6427432167847132	-1.032976425507592e-08	1.761141336425411e-08	6.683016854232895e-08	8.597416411707679e-09	-2.450478729117815e-08	1.140904076207447e-07	-1.643263821088336e-08
1.01	-0.1021099242748647	-0.05578524366320708	0.6950866694506475	1.282837610021453	-0.3300388985626351	0.06389372123719993	-0.959930623533117	1.360772981718458	1.360772981718364	-0.07372119818844314	-0.1745136858102892	0.2749682550078505	0.06055183835423412	0.1102309361972125	0.0259429814494043	0.08344578101975625	-0.3432485444406968	-0.007121896474577427	-0.08323423395608077	0.0001215136255816823	-0.2110834516287776	-0.2110834516289257	-0.003209109685689269	-9.878348712394649e-06	0.009555470897803005	-0.003836460987481533	-0.3677265315003656	0.03463774800731355	-7.255901445742452e-05	-0.3649333148945693	0.03799495014383945	0.01731750844051841	0.4229515443531873	-39.15151472433968	1.04946312149111	-2.580917554644621	13.27904428107705	-796.355423494042	-57.03956202807725	-0.0420393780574824	0.8006123511035478	0.01119508501926122	1.464630669984941	-4.773379063454306	-0.08129836809957799	-1.667140742289554	0.1482097430189581	-4.854833084522308	-4.854833084529889	-0.2484830767538267	0.01267804091802551	-1.219825599309106	-0.6096394823441499	-1.723839308393237e-08	9.496809397749342e-09	9.467593514083325e-08	1.607798144528961e-08	-3.19918416473064e-08	1.268434058538033e-07	-2.196856116792897e-08
1.02	-0.1009674834274407	-0.05552519337571277	0.6959943081055908	1.279166353845445	-0.3301144049663854	0.06297851951460304	-0.9599219859710857	1.358419229572996	1.35841922957298	-0.0737666423696149	-0.1745135698473978	0.2750025353401543	0.06048256799918169	0.1182480128410648	0.02607262100948357	0.09807169000716912	-0.3909781989351829	-0.007969120795595792	-0.09979996187998864	0.001631426916320041	-0.2596685775978621	-0.2596685775980605	-0.005878478327424524	3.470916896197191e-05	-0.002715875920078398	-0.01001110755920851	-0.3669052356953297	0.03486117803546273	-0.0001462688344025461	-0.3647400366296407	0.0379489033661257	0.01741639620623199	0.4225717615982269	-39.14666864354574	0.9986618333290409	-2.564816189190218	13.20551429074393	-796.1838391626886	-57.05641486779037	-0.04206865736430387	0.8066681211425767	0.01483174860267722	1.461602171775596	-4.779480294607731	-0.09463309551807191	-1.637246908579336	0.1489261032300483	-4.86540039120867	-4.86540039120894	-0.3041986078812538	-0.01251629087706289	-1.236810745446659	-0.6350406488207695	-2.357162589173486e-08	-2.166596834991119e-10	1.212301685034424e-07	2.123047093292003e-08	-3.823635771960514e-08	1.402761196247931e-07	-2.789295377636274e-08
1.03	-0.09974555469168528	-0.05526346543972972	0.6970478368905392	1.275018830162987	-0.3301980688400803	0.06189794764575615	-0.9598957781970511	1.355579738185893	1.355579738185879	-0.07383878618223241	-0.1745129470372537	0.2749138986444013	0.06035189395501993	0.1260880800291886	0.02630015449510115	0.1126180055732866	-0.4384737607749089	-0.008754312291013925	-0.1163035245133051	0.003806508891681848	-0.3082163218529591	-0.3082163218529737	-0.008550520741992895	8.768136429118603e-05	-0.01499920234671935	-0.01610466799611982	-0.3672804434967653	0.0352158601911753	-0.0002591002140126871	-0.3640009882043643	0.03775688016032892	0.01762707882408318	0.4236334818799965	-39.2031697428279	0.8945273429705861	-2.522481874774466	12.75058311086934	-796.6301457648275	-57.07520671920671	-0.0421031018297818	0.7652255073685731	0.03079769764207664	1.448728106237542	-4.726681293315607	-0.06907502669228889	-1.655305296197755	0.2812563915616102	-4.847447946979636	-4.847447946951891	-0.2487593073261474	0.01391186600776185	-1.222256259524006	-0.5936743794762182	-2.98989873115674e-08	-9.946443714898022e-09	1.477712229554812e-07	2.635920454763256e-08	-4.446819482982398e-08	1.53715769268619e-07	-3.382131036083108e-08
